HIERARCHY
ROOT Hips
{
  OFFSET 13.6774 106.653 -34.4427
  CHANNELS 6 Xposition Yposition Zposition Zrotation Xrotation Yrotation
  JOINT ToSpine
  {
    OFFSET -2.69724 7.43032 -0.144315
    CHANNELS 3 Zrotation Xrotation Yrotation
    JOINT Spine
    {
      OFFSET -0.0310711 10.7595 1.96963
      CHANNELS 3 Zrotation Xrotation Yrotation
      JOINT Spine1
      {
        OFFSET 19.9056 3.91189 0.764692
        CHANNELS 3 Zrotation Xrotation Yrotation
        JOINT Neck
        {
          OFFSET 25.9749 7.03908 -0.130764
          CHANNELS 3 Zrotation Xrotation Yrotation
          JOINT Head
          {
            OFFSET 9.52751 0.295786 -0.907742
            CHANNELS 3 Zrotation Xrotation Yrotation
            End Site
            {
              OFFSET 16.4037 0.713936 2.7358
            }
          }
        }
        JOINT LeftShoulder
        {
          OFFSET 17.7449 4.33886 11.7777
          CHANNELS 3 Zrotation Xrotation Yrotation
          JOINT LeftArm
          {
            OFFSET 0.911315 1.27913 9.80584
            CHANNELS 3 Zrotation Xrotation Yrotation
            JOINT LeftForeArm
            {
              OFFSET 28.6126 1.18197 -3.53199
              CHANNELS 3 Zrotation Xrotation Yrotation
              JOINT LeftHand
              {
                OFFSET 27.5088 0.0218783 0.327423
                CHANNELS 3 Zrotation Xrotation Yrotation
                End Site
                {
                  OFFSET 18.6038 -0.000155887 0.382096
                }
              }
            }
          }
        }
        JOINT RightShoulder
        {
          OFFSET 17.1009 2.89543 -12.2328
          CHANNELS 3 Zrotation Xrotation Yrotation
          JOINT RightArm
          {
            OFFSET 1.4228 0.178766 -10.211
            CHANNELS 3 Zrotation Xrotation Yrotation
            JOINT RightForeArm
            {
              OFFSET 28.733 1.87905 2.64907
              CHANNELS 3 Zrotation Xrotation Yrotation
              JOINT RightHand
              {
                OFFSET 27.4588 0.290562 -0.101845
                CHANNELS 3 Zrotation Xrotation Yrotation
                End Site
                {
                  OFFSET 17.8396 -0.255518 -0.000602873
                }
              }
            }
          }
        }
      }
    }
  }
  JOINT LeftUpLeg
  {
    OFFSET -5.61296 -2.22332 -10.2353
    CHANNELS 3 Zrotation Xrotation Yrotation
    JOINT LeftLeg
    {
      OFFSET 2.56703 -44.7417 -7.93097
      CHANNELS 3 Zrotation Xrotation Yrotation
      JOINT LeftFoot
      {
        OFFSET 3.16933 -46.5642 -3.96578
        CHANNELS 3 Zrotation Xrotation Yrotation
        JOINT LeftToeBase
        {
          OFFSET 0.346054 -6.02161 12.8035
          CHANNELS 3 Zrotation Xrotation Yrotation
          End Site
          {
            OFFSET 0.134235 -1.35082 5.13018
          }
        }
      }
    }
  }
  JOINT RightUpLeg
  {
    OFFSET -5.7928 -1.72406 10.6446
    CHANNELS 3 Zrotation Xrotation Yrotation
    JOINT RightLeg
    {
      OFFSET -2.57161 -44.7178 -7.85259
      CHANNELS 3 Zrotation Xrotation Yrotation
      JOINT RightFoot
      {
        OFFSET -3.10148 -46.5936 -4.03391
        CHANNELS 3 Zrotation Xrotation Yrotation
        JOINT RightToeBase
        {
          OFFSET -0.0828122 -6.13587 12.8035
          CHANNELS 3 Zrotation Xrotation Yrotation
          End Site
          {
            OFFSET -0.131328 -1.35082 5.13018
          }
        }
      }
    }
  }
}
MOTION
Frames: 7
Frame Time: 0.03333333333333333
0.0000 93.1000 0.0000 71.0684 -12.1679 -4.8305 -70.9942 -0.1210 88.0038 83.9850 70.1509 -3.3204 -5.5681 16.0877 12.6518 -133.3344 41.0649 152.6526 -126.4869 81.7078 148.7957 -0.4026 -14.0273 -23.7082 -79.0705 33.1289 -141.8494 20.2636 -6.0695 -102.8650 -0.2926 0.0455 0.3068 -2.4518 6.7271 39.1609 -139.0579 6.2902 83.9579 11.9906 -1.1096 87.9247 0.1316 0.0916 -0.1034 -57.8344 10.1614 97.9479 -2.2282 31.0754 -3.9854 -2.8381 -13.2405 -1.2018 2.6262 -10.6885 14.4007 -51.8265 -9.9209 81.3737 -0.1757 31.2167 12.0101 -4.2799 -12.8559 0.9292 1.7678 -13.9100 -13.2236 
0.0000 93.1000 0.0000 71.1026 -11.3581 -4.9564 -70.9933 -0.0282 88.0043 82.2998 70.1413 -3.1556 -5.5121 15.8765 12.6616 -134.4545 41.2367 152.8103 -125.4153 81.6674 147.8548 0.1574 -14.3644 -23.5619 -79.1302 32.4942 -142.8187 19.8331 -5.8080 -103.0982 -0.1409 0.0677 0.2330 -2.0540 6.8539 39.0647 -139.8869 6.4376 83.7810 11.3591 -1.0867 88.1669 -0.1057 0.0876 0.0081 -57.9778 9.9198 97.8925 -0.9193 29.3092 -5.8494 -2.8244 -12.2580 -1.4847 2.2931 -10.0601 15.0839 -51.7123 -10.0693 81.1511 0.7977 31.2754 12.8629 -4.2849 -12.9450 1.1362 2.2494 -13.7402 -14.4319 
0.0000 93.1000 0.0000 71.0014 -11.1959 -4.9120 -70.9894 0.0679 88.0036 84.9606 70.1282 -5.3881 -5.8329 16.2430 12.1530 -134.3036 41.8251 152.0696 -122.2611 82.0150 143.8988 0.3916 -14.5222 -23.4862 -78.2301 31.8232 -143.8870 20.1408 -6.1163 -104.0410 0.0337 0.1007 0.1805 -1.9478 6.9832 38.9405 -139.8535 6.8271 83.8683 11.1438 -0.8854 87.9018 -0.0497 0.0514 0.0418 -58.3413 9.8677 98.6487 -0.9002 28.1547 -4.6991 -2.9933 -12.7123 -1.6131 1.1009 -8.0986 13.5226 -51.1376 -10.9897 80.1068 0.8690 31.1166 12.8842 -4.6574 -12.9818 1.2183 1.8174 -12.9772 -13.9887 
0.0000 93.1000 0.0000 71.0725 -11.1854 -5.0836 -70.9895 0.1722 88.0006 87.0842 70.9050 -7.0278 -6.3204 16.8921 11.5272 -135.4802 42.0797 152.0052 -122.3671 82.1781 143.8442 -0.0805 -14.4843 -23.3756 -77.9840 32.0008 -143.9364 20.8861 -6.1838 -104.1321 0.0850 0.2931 0.1150 -2.2263 7.1009 38.9093 -139.8404 6.8078 84.7159 11.0134 -0.9776 88.0089 -0.1962 -0.2027 -0.1951 -58.8514 9.7516 98.5268 -1.0517 27.3849 -4.7584 -3.4181 -12.1774 -1.1922 0.7283 -7.0519 13.8959 -51.1320 -10.9842 80.1366 0.6206 31.2395 12.7809 -5.1474 -12.3375 1.2331 2.1509 -10.4719 -13.4651 
0.0000 93.1000 0.0000 71.9665 -10.9288 -4.9336 -70.9932 -0.3491 88.0015 87.0081 70.9848 -7.0332 -6.5045 17.0537 10.8744 -136.2975 41.9704 152.9076 -122.2533 82.2995 143.6084 -0.0920 -14.6652 -23.5906 -77.0288 31.9359 -143.6562 20.8308 -6.0436 -103.9569 0.1884 -0.1980 0.2623 -2.2335 6.9119 38.3232 -140.0661 6.2321 84.1782 11.0225 -1.0043 87.7649 0.1531 0.2651 0.2729 -58.9088 9.0834 99.1066 -1.0628 27.3121 -5.0253 -2.9746 -11.2124 -0.9698 0.3044 -6.9666 13.1736 -50.6909 -10.7003 81.0087 0.5728 31.7293 11.9848 -4.6419 -12.8778 0.7874 2.2203 -8.1272 -12.4398 
0.0000 93.1000 0.0000 72.2100 -11.2133 -5.0494 -70.9880 0.0888 88.0022 87.0496 70.9314 -7.1532 -6.2115 17.2545 10.6315 -135.4674 42.1846 153.0034 -124.1662 82.5659 144.7905 0.0055 -14.7546 -23.8051 -77.1508 32.2497 -142.8669 20.6203 -6.4296 -104.0238 0.0047 0.2008 0.1020 -2.1650 7.1015 38.2639 -140.0891 5.9818 84.1491 10.7445 -0.9386 88.0228 -0.2150 -0.0779 0.0796 -59.0976 9.2309 98.9526 -0.8871 27.3441 -4.7306 -3.0358 -11.2493 -1.1613 0.1126 -5.7679 11.9267 -50.8971 -10.1242 81.7927 0.8391 32.2156 12.0574 -4.0520 -13.1422 1.0807 1.1808 -7.5674 -11.6061 
0.0000 93.1000 0.0000 73.0279 -11.6869 -4.8831 -70.9886 0.1077 88.0044 86.0953 71.2513 -6.7463 -5.9905 17.4147 10.9250 -135.3756 41.9123 152.9398 -122.2389 82.3234 144.0200 0.0248 -14.1929 -23.9357 -76.1174 31.9733 -142.9720 20.1698 -6.2425 -104.0192 -0.1910 0.2355 0.1787 -2.1521 7.3007 38.0108 -139.0364 5.6910 84.7688 11.1315 -0.9324 87.5880 -0.1257 -0.1087 0.0501 -59.7415 8.8786 99.4161 -0.3141 26.4240 -4.4218 -3.3095 -10.8583 -1.0700 -0.2392 -5.0767 11.0346 -50.7385 -10.8436 82.0923 0.9558 32.2236 12.0240 -3.9832 -13.2907 1.1533 0.7607 -7.5095 -11.0035 
